<svg width="32" height="32" viewBox="0 0 32 32" fill="none" xmlns="http://www.w3.org/2000/svg">
<path d="M31.6848 24.8099C31.6471 24.7236 31.5998 24.6419 31.5438 24.5664L28.7784 20.833C28.5904 20.3804 28.1445 20.0619 27.6239 20.0619H5.62594V6.9381C5.62594 5.55973 6.74732 4.43835 8.12569 4.43835H23.8742C25.2526 4.43835 26.3739 5.55973 26.3739 6.9381V15.0624C26.3739 15.7527 26.9335 16.3122 27.6238 16.3122C28.3141 16.3122 28.8737 15.7527 28.8737 15.0624V6.93804C28.8737 4.18129 26.6309 1.93848 23.8742 1.93848H8.12576C5.36901 1.93848 3.12626 4.18129 3.12626 6.93804V20.9617L0.456131 24.5663C0.400131 24.6419 0.352819 24.7236 0.315194 24.8098C-0.193119 25.9731 -0.0816186 27.3019 0.613506 28.3642C1.30863 29.4266 2.48157 30.0609 3.75113 30.0609H28.2488C29.5184 30.0609 30.6913 29.4267 31.3864 28.3642C32.0816 27.3019 32.1931 25.9732 31.6848 24.8099ZM29.2948 26.9955C29.0596 27.3549 28.6784 27.561 28.2489 27.561H20.3746C20.3746 26.8707 19.815 26.3112 19.1247 26.3112H12.8753C12.1849 26.3112 11.6254 26.8707 11.6254 27.561H3.75113C3.32163 27.561 2.94038 27.3549 2.70526 26.9955C2.49194 26.6695 2.44226 26.2839 2.56326 25.9214L5.00569 22.624H26.9943L29.4368 25.9214C29.5576 26.2839 29.5081 26.6695 29.2948 26.9955Z" fill="#B4B7C9"/>
<path d="M12.625 12.5008V12.5633V16.2505V16.313C12.625 17.0033 13.1846 17.5629 13.8749 17.5629C14.5652 17.5629 15.1248 17.0033 15.1248 16.313V16.2505V12.5634V12.5009C15.1248 11.8105 14.5652 11.251 13.8749 11.251C13.1846 11.2509 12.625 11.8105 12.625 12.5008Z" fill="#6366F1"/>
<path d="M8.25098 11.2499V11.3124V16.2494V16.3119C8.25098 17.0022 8.81054 17.5618 9.50085 17.5618C10.1912 17.5618 10.7507 17.0022 10.7507 16.3119V16.2494V11.3124V11.2499C10.7507 10.5596 10.1912 10 9.50085 10C8.81054 10 8.25098 10.5596 8.25098 11.2499Z" fill="#6366F1"/>
<path d="M17 8.12585V8.18835V16.2501V16.3126C17 17.0029 17.5596 17.5625 18.2499 17.5625C18.9402 17.5625 19.4998 17.0029 19.4998 16.3126V16.2501V8.18835V8.12585C19.4998 7.43554 18.9402 6.87598 18.2499 6.87598C17.5596 6.87591 17 7.43554 17 8.12585Z" fill="#6366F1"/>
<path d="M21.374 14.4374V14.4999V16.2497V16.3122C21.374 17.0025 21.9336 17.5621 22.6239 17.5621C23.3142 17.5621 23.8738 17.0025 23.8738 16.3122V16.2497V14.4999V14.4374C23.8738 13.7471 23.3142 13.1875 22.6239 13.1875C21.9336 13.1875 21.374 13.7471 21.374 14.4374Z" fill="#6366F1"/>
</svg>
