<svg width="32" height="32" viewBox="0 0 32 32" fill="none" xmlns="http://www.w3.org/2000/svg">
<g clip-path="url(#clip0_2_2453)">
<path d="M29.283 19.1609C29.0243 18.521 28.2957 18.2117 27.6557 18.4705C27.0156 18.7293 26.7065 19.4578 26.9652 20.0979L28.4374 23.7395L24.0651 21.8121C23.7486 21.6726 23.3884 21.6704 23.0702 21.8061C21.576 22.4437 19.9753 22.767 18.3125 22.767C11.6205 22.767 7.12503 17.5273 7.12503 12.6335C7.12503 7.04586 12.1437 2.5 18.3125 2.5C24.4813 2.5 29.5 7.04586 29.5 12.6335C29.5 13.0694 29.4594 13.5914 29.3887 14.0655C29.2868 14.7483 29.7577 15.3844 30.4405 15.4863C31.1234 15.5884 31.7595 15.1172 31.8613 14.4344C31.9507 13.835 32 13.1954 32 12.6335C32 9.23786 30.5621 6.05174 27.951 3.66206C25.3709 1.30056 21.9479 0 18.3125 0C14.6771 0 11.2541 1.30056 8.67396 3.66199C6.34072 5.79749 4.94522 8.56923 4.67453 11.5579C1.73973 13.5014 4.16756e-05 16.6157 4.16756e-05 19.9703C4.16756e-05 22.0658 0.660228 24.054 1.91691 25.7651L0.0911665 30.2814C-0.0995206 30.7531 0.0146666 31.2933 0.379978 31.6474C0.618041 31.8783 0.931727 32 1.25029 32C1.42048 31.9999 1.5921 31.9653 1.75423 31.8938L7.01853 29.5731C8.34278 30.0661 9.74259 30.3156 11.1875 30.3156C11.2187 30.3156 11.2494 30.3132 11.2801 30.3109C13.3699 30.2951 15.4016 29.7454 17.1612 28.7168C18.7373 27.7953 20.0338 26.5294 20.9428 25.0345C21.8302 24.8751 22.6976 24.6343 23.5394 24.3125L30.2457 27.2688C30.4079 27.3402 30.5795 27.375 30.7497 27.375C31.0682 27.3749 31.382 27.2532 31.62 27.0224C31.9854 26.6683 32.0995 26.1281 31.9089 25.6565L29.283 19.1609ZM11.1876 27.8124C11.1705 27.8124 11.1539 27.8143 11.137 27.815C9.86059 27.8085 8.63209 27.5576 7.48478 27.0681C7.16672 26.9323 6.80653 26.9345 6.49003 27.0741L3.56272 28.3644L4.50703 26.0285C4.68159 25.5967 4.60153 25.1036 4.29941 24.7491C3.12222 23.3681 2.50004 21.7156 2.50004 19.9703C2.50004 17.9727 3.34035 16.08 4.8106 14.6449C5.26834 17.1402 6.5599 19.5272 8.50821 21.4023C10.9326 23.7356 14.1395 25.0874 17.6023 25.2501C15.9766 26.8504 13.6501 27.8124 11.1876 27.8124Z" fill="#B4B7C9"/>
<path d="M18.25 13.9375C18.9404 13.9375 19.5 13.3779 19.5 12.6875C19.5 11.9971 18.9404 11.4375 18.25 11.4375C17.5596 11.4375 17 11.9971 17 12.6875C17 13.3779 17.5596 13.9375 18.25 13.9375Z" fill="#6366F1"/>
<path d="M23.25 13.9375C23.9404 13.9375 24.5 13.3779 24.5 12.6875C24.5 11.9971 23.9404 11.4375 23.25 11.4375C22.5596 11.4375 22 11.9971 22 12.6875C22 13.3779 22.5596 13.9375 23.25 13.9375Z" fill="#6366F1"/>
<path d="M13.25 13.9375C13.9404 13.9375 14.5 13.3779 14.5 12.6875C14.5 11.9971 13.9404 11.4375 13.25 11.4375C12.5596 11.4375 12 11.9971 12 12.6875C12 13.3779 12.5596 13.9375 13.25 13.9375Z" fill="#6366F1"/>
</g>
<defs>
<clipPath id="clip0_2_2453">
<rect width="32" height="32" fill="white"/>
</clipPath>
</defs>
</svg>
