<svg width="20" height="20" viewBox="0 0 20 20" fill="none" xmlns="http://www.w3.org/2000/svg">
<path d="M16.6665 3.3335H3.33317C2.414 3.3335 1.6665 4.081 1.6665 5.00016V15.0002C1.6665 15.9193 2.414 16.6668 3.33317 16.6668H16.6665C17.5857 16.6668 18.3332 15.9193 18.3332 15.0002V5.00016C18.3332 4.081 17.5857 3.3335 16.6665 3.3335ZM16.6665 5.00016V5.426L9.99984 10.6118L3.33317 5.42683V5.00016H16.6665ZM3.33317 15.0002V7.53683L9.48817 12.3243C9.63817 12.4418 9.819 12.5002 9.99984 12.5002C10.1807 12.5002 10.3615 12.4418 10.5115 12.3243L16.6665 7.53683L16.6682 15.0002H3.33317Z" fill="#B4B7C9"/>
</svg>
