<svg width="20" height="20" viewBox="0 0 20 20" fill="none" xmlns="http://www.w3.org/2000/svg">
<path d="M9.99923 6.14746C7.87089 6.14746 6.14673 7.87246 6.14673 9.99996C6.14673 12.1283 7.87089 13.8533 9.99923 13.8533C12.1259 13.8533 13.8517 12.1283 13.8517 9.99996C13.8517 7.87246 12.1259 6.14746 9.99923 6.14746ZM9.99923 12.5033C8.61673 12.5033 7.4959 11.3825 7.4959 10.0008C7.4959 8.61829 8.61673 7.49829 9.99923 7.49829C11.3817 7.49829 12.5009 8.61829 12.5009 10.0008C12.5009 11.3825 11.3817 12.5033 9.99923 12.5033Z" fill="#33354D"/>
<path d="M14.005 6.90409C14.5012 6.90409 14.9034 6.50189 14.9034 6.00575C14.9034 5.50962 14.5012 5.10742 14.005 5.10742C13.5089 5.10742 13.1067 5.50962 13.1067 6.00575C13.1067 6.50189 13.5089 6.90409 14.005 6.90409Z" fill="#33354D"/>
<path d="M17.1109 5.09248C16.72 4.08498 15.9242 3.28832 14.9167 2.89915C14.3342 2.67998 13.7184 2.56248 13.095 2.54915C12.2925 2.51415 12.0384 2.50415 10.0034 2.50415C7.96838 2.50415 7.70754 2.50415 6.91171 2.54915C6.29004 2.56165 5.67421 2.67915 5.09171 2.89915C4.08338 3.28832 3.28754 4.08498 2.89754 5.09248C2.67838 5.67582 2.56088 6.29082 2.54838 6.91415C2.51254 7.71582 2.50171 7.96998 2.50171 10.0058C2.50171 12.0408 2.50171 12.3 2.54838 13.0975C2.56088 13.7208 2.67838 14.3358 2.89754 14.92C3.28838 15.9267 4.08421 16.7233 5.09254 17.1133C5.67254 17.34 6.28838 17.4683 6.91338 17.4883C7.71588 17.5233 7.97004 17.5342 10.005 17.5342C12.04 17.5342 12.3009 17.5342 13.0967 17.4883C13.7192 17.4758 14.335 17.3575 14.9184 17.1392C15.9259 16.7483 16.7217 15.9525 17.1125 14.945C17.3317 14.3617 17.4492 13.7467 17.4617 13.1233C17.4975 12.3217 17.5084 12.0675 17.5084 10.0317C17.5084 7.99582 17.5084 7.73748 17.4617 6.93998C17.4509 6.30832 17.3342 5.68248 17.1109 5.09248ZM16.0959 13.0358C16.09 13.5158 16.0034 13.9917 15.8367 14.4425C15.5825 15.0983 15.065 15.6166 14.41 15.8683C13.9642 16.0342 13.4942 16.1208 13.0184 16.1275C12.2267 16.1642 12.0034 16.1733 9.97338 16.1733C7.94171 16.1733 7.73421 16.1733 6.92754 16.1275C6.45338 16.1217 5.98171 16.0342 5.53671 15.8683C4.87921 15.6175 4.35838 15.0992 4.10421 14.4425C3.94088 13.9975 3.85254 13.5267 3.84504 13.0517C3.80921 12.26 3.80088 12.0367 3.80088 10.0067C3.80088 7.97582 3.80088 7.76832 3.84504 6.96082C3.85088 6.48082 3.93754 6.00582 4.10421 5.55498C4.35838 4.89748 4.87921 4.37998 5.53671 4.12832C5.98171 3.96332 6.45338 3.87582 6.92754 3.86915C7.72004 3.83332 7.94254 3.82332 9.97338 3.82332C12.0042 3.82332 12.2125 3.82332 13.0184 3.86915C13.4942 3.87498 13.9642 3.96248 14.41 4.12832C15.065 4.38082 15.5825 4.89915 15.8367 5.55498C16 5.99998 16.0884 6.47082 16.0959 6.94582C16.1317 7.73832 16.1409 7.96082 16.1409 9.99165C16.1409 12.0217 16.1409 12.24 16.105 13.0367H16.0959V13.0358Z" fill="#33354D"/>
</svg>
